<svg xmlns="http://www.w3.org/2000/svg" xmlns:xlink="http://www.w3.org/1999/xlink" width="500" zoomAndPan="magnify" viewBox="0 0 375 374.999991" height="500" preserveAspectRatio="xMidYMid meet" version="1.0"><defs><g/><clipPath id="245b66464a"><path d="M 147.882812 88.582031 L 227.382812 88.582031 L 227.382812 168 L 147.882812 168 Z M 147.882812 88.582031 " clip-rule="nonzero"/></clipPath></defs><g clip-path="url(#245b66464a)"><path fill="#1f186c" d="M 187.492188 128.191406 L 147.882812 128.191406 C 147.882812 106.3125 165.617188 88.582031 187.492188 88.582031 Z M 187.492188 128.191406 L 187.492188 167.800781 C 209.371094 167.800781 227.105469 150.066406 227.105469 128.191406 Z M 159.808594 137.394531 C 154.796875 142.40625 154.796875 150.53125 159.808594 155.542969 C 164.820312 160.554688 172.945312 160.554688 177.957031 155.542969 C 182.96875 150.53125 182.96875 142.40625 177.957031 137.394531 C 172.945312 132.382812 164.820312 132.382812 159.808594 137.394531 Z M 215.484375 117.460938 C 220.496094 112.449219 220.496094 104.324219 215.484375 99.3125 C 210.472656 94.300781 202.347656 94.300781 197.335938 99.3125 C 192.324219 104.324219 192.324219 112.449219 197.335938 117.460938 C 202.347656 122.472656 210.472656 122.472656 215.484375 117.460938 Z M 215.484375 117.460938 " fill-opacity="1" fill-rule="nonzero"/></g><g fill="#1f186c" fill-opacity="1"><g transform="translate(85.124996, 239.48569)"><g><path d="M 31.109375 -38.515625 L 31.109375 -31 L 20.90625 -31 L 20.90625 0 L 11.515625 0 L 11.515625 -31 L 1.3125 -31 L 1.3125 -38.515625 Z M 31.109375 -38.515625 "/></g></g></g><g fill="#1f186c" fill-opacity="1"><g transform="translate(117.537601, 239.48569)"><g><path d="M 1.53125 -15.359375 C 1.53125 -18.503906 2.125 -21.265625 3.3125 -23.640625 C 4.507812 -26.015625 6.128906 -27.84375 8.171875 -29.125 C 10.222656 -30.40625 12.507812 -31.046875 15.03125 -31.046875 C 17.1875 -31.046875 19.078125 -30.609375 20.703125 -29.734375 C 22.335938 -28.859375 23.59375 -27.707031 24.46875 -26.28125 L 24.46875 -30.609375 L 33.84375 -30.609375 L 33.84375 0 L 24.46875 0 L 24.46875 -4.328125 C 23.550781 -2.898438 22.28125 -1.75 20.65625 -0.875 C 19.03125 0 17.140625 0.4375 14.984375 0.4375 C 12.492188 0.4375 10.222656 -0.207031 8.171875 -1.5 C 6.128906 -2.800781 4.507812 -4.648438 3.3125 -7.046875 C 2.125 -9.441406 1.53125 -12.210938 1.53125 -15.359375 Z M 24.46875 -15.3125 C 24.46875 -17.644531 23.816406 -19.488281 22.515625 -20.84375 C 21.222656 -22.195312 19.644531 -22.875 17.78125 -22.875 C 15.914062 -22.875 14.332031 -22.207031 13.03125 -20.875 C 11.726562 -19.539062 11.078125 -17.703125 11.078125 -15.359375 C 11.078125 -13.015625 11.726562 -11.15625 13.03125 -9.78125 C 14.332031 -8.414062 15.914062 -7.734375 17.78125 -7.734375 C 19.644531 -7.734375 21.222656 -8.410156 22.515625 -9.765625 C 23.816406 -11.117188 24.46875 -12.96875 24.46875 -15.3125 Z M 24.46875 -15.3125 "/></g></g></g><g fill="#1f186c" fill-opacity="1"><g transform="translate(154.776441, 239.48569)"><g><path d="M 15.859375 0.4375 C 13.179688 0.4375 10.800781 -0.015625 8.71875 -0.921875 C 6.632812 -1.835938 4.988281 -3.09375 3.78125 -4.6875 C 2.570312 -6.28125 1.894531 -8.066406 1.75 -10.046875 L 11.03125 -10.046875 C 11.132812 -8.984375 11.625 -8.117188 12.5 -7.453125 C 13.382812 -6.796875 14.46875 -6.46875 15.75 -6.46875 C 16.914062 -6.46875 17.816406 -6.695312 18.453125 -7.15625 C 19.097656 -7.613281 19.421875 -8.207031 19.421875 -8.9375 C 19.421875 -9.820312 18.960938 -10.472656 18.046875 -10.890625 C 17.128906 -11.304688 15.648438 -11.769531 13.609375 -12.28125 C 11.410156 -12.800781 9.578125 -13.34375 8.109375 -13.90625 C 6.648438 -14.46875 5.390625 -15.363281 4.328125 -16.59375 C 3.273438 -17.820312 2.75 -19.476562 2.75 -21.5625 C 2.75 -23.3125 3.234375 -24.910156 4.203125 -26.359375 C 5.171875 -27.804688 6.59375 -28.945312 8.46875 -29.78125 C 10.351562 -30.625 12.597656 -31.046875 15.203125 -31.046875 C 19.035156 -31.046875 22.054688 -30.09375 24.265625 -28.1875 C 26.484375 -26.289062 27.757812 -23.769531 28.09375 -20.625 L 19.421875 -20.625 C 19.273438 -21.6875 18.804688 -22.523438 18.015625 -23.140625 C 17.234375 -23.765625 16.203125 -24.078125 14.921875 -24.078125 C 13.828125 -24.078125 12.984375 -23.867188 12.390625 -23.453125 C 11.804688 -23.035156 11.515625 -22.457031 11.515625 -21.71875 C 11.515625 -20.84375 11.976562 -20.1875 12.90625 -19.75 C 13.84375 -19.3125 15.300781 -18.875 17.28125 -18.4375 C 19.550781 -17.851562 21.398438 -17.273438 22.828125 -16.703125 C 24.253906 -16.140625 25.503906 -15.222656 26.578125 -13.953125 C 27.660156 -12.691406 28.21875 -11.003906 28.25 -8.890625 C 28.25 -7.097656 27.742188 -5.492188 26.734375 -4.078125 C 25.734375 -2.671875 24.289062 -1.566406 22.40625 -0.765625 C 20.519531 0.0351562 18.335938 0.4375 15.859375 0.4375 Z M 15.859375 0.4375 "/></g></g></g><g fill="#1f186c" fill-opacity="1"><g transform="translate(185.379197, 239.48569)"><g><path d="M 22.109375 0 L 12.78125 -12.84375 L 12.78125 0 L 3.40625 0 L 3.40625 -40.59375 L 12.78125 -40.59375 L 12.78125 -18.15625 L 22.046875 -30.609375 L 33.625 -30.609375 L 20.90625 -15.25 L 33.734375 0 Z M 22.109375 0 "/></g></g></g><g fill="#1f186c" fill-opacity="1"><g transform="translate(219.272576, 239.48569)"><g><path d="M 8.125 -33.796875 C 6.476562 -33.796875 5.132812 -34.28125 4.09375 -35.25 C 3.050781 -36.21875 2.53125 -37.414062 2.53125 -38.84375 C 2.53125 -40.300781 3.050781 -41.515625 4.09375 -42.484375 C 5.132812 -43.453125 6.476562 -43.9375 8.125 -43.9375 C 9.726562 -43.9375 11.050781 -43.453125 12.09375 -42.484375 C 13.132812 -41.515625 13.65625 -40.300781 13.65625 -38.84375 C 13.65625 -37.414062 13.132812 -36.21875 12.09375 -35.25 C 11.050781 -34.28125 9.726562 -33.796875 8.125 -33.796875 Z M 12.78125 -30.609375 L 12.78125 0 L 3.40625 0 L 3.40625 -30.609375 Z M 12.78125 -30.609375 "/></g></g></g><g fill="#1f186c" fill-opacity="1"><g transform="translate(235.451452, 239.48569)"><g><path d="M 18.765625 -22.828125 L 13.71875 -22.828125 L 13.71875 0 L 4.328125 0 L 4.328125 -22.828125 L 0.9375 -22.828125 L 0.9375 -30.609375 L 4.328125 -30.609375 L 4.328125 -31.484375 C 4.328125 -35.253906 5.40625 -38.117188 7.5625 -40.078125 C 9.726562 -42.035156 12.894531 -43.015625 17.0625 -43.015625 C 17.757812 -43.015625 18.269531 -42.992188 18.59375 -42.953125 L 18.59375 -35 C 16.800781 -35.113281 15.539062 -34.859375 14.8125 -34.234375 C 14.082031 -33.609375 13.71875 -32.492188 13.71875 -30.890625 L 13.71875 -30.609375 L 18.765625 -30.609375 Z M 18.765625 -22.828125 "/></g></g></g><g fill="#1f186c" fill-opacity="1"><g transform="translate(255.195174, 239.48569)"><g><path d="M 34.671875 -30.609375 L 15.46875 14.53125 L 5.375 14.53125 L 12.390625 -1.046875 L -0.0625 -30.609375 L 10.421875 -30.609375 L 17.5 -11.46875 L 24.515625 -30.609375 Z M 34.671875 -30.609375 "/></g></g></g><g fill="#4e46dc" fill-opacity="1"><g transform="translate(92.976557, 280.360087)"><g><path d="M 5.359375 0.09375 C 4.460938 0.09375 3.640625 -0.113281 2.890625 -0.53125 C 2.140625 -0.945312 1.546875 -1.53125 1.109375 -2.28125 C 0.671875 -3.03125 0.453125 -3.867188 0.453125 -4.796875 C 0.453125 -5.734375 0.671875 -6.570312 1.109375 -7.3125 C 1.546875 -8.0625 2.140625 -8.644531 2.890625 -9.0625 C 3.640625 -9.476562 4.460938 -9.6875 5.359375 -9.6875 C 6.253906 -9.6875 7.078125 -9.476562 7.828125 -9.0625 C 8.578125 -8.644531 9.164062 -8.0625 9.59375 -7.3125 C 10.03125 -6.570312 10.25 -5.734375 10.25 -4.796875 C 10.25 -3.867188 10.03125 -3.03125 9.59375 -2.28125 C 9.15625 -1.53125 8.5625 -0.945312 7.8125 -0.53125 C 7.070312 -0.113281 6.253906 0.09375 5.359375 0.09375 Z M 5.359375 -2.03125 C 6.117188 -2.03125 6.726562 -2.28125 7.1875 -2.78125 C 7.644531 -3.289062 7.875 -3.960938 7.875 -4.796875 C 7.875 -5.640625 7.644531 -6.3125 7.1875 -6.8125 C 6.726562 -7.320312 6.117188 -7.578125 5.359375 -7.578125 C 4.585938 -7.578125 3.972656 -7.328125 3.515625 -6.828125 C 3.054688 -6.328125 2.828125 -5.648438 2.828125 -4.796875 C 2.828125 -3.953125 3.054688 -3.28125 3.515625 -2.78125 C 3.972656 -2.28125 4.585938 -2.03125 5.359375 -2.03125 Z M 5.359375 -2.03125 "/></g></g></g><g fill="#4e46dc" fill-opacity="1"><g transform="translate(103.670407, 280.360087)"><g><path d="M 3.171875 -6.328125 C 3.441406 -6.742188 3.78125 -7.070312 4.1875 -7.3125 C 4.59375 -7.550781 5.046875 -7.671875 5.546875 -7.671875 L 5.546875 -5.21875 L 4.90625 -5.21875 C 4.332031 -5.21875 3.898438 -5.09375 3.609375 -4.84375 C 3.316406 -4.59375 3.171875 -4.15625 3.171875 -3.53125 L 3.171875 0 L 0.84375 0 L 0.84375 -7.59375 L 3.171875 -7.59375 Z M 3.171875 -6.328125 "/></g></g></g><g fill="#4e46dc" fill-opacity="1"><g transform="translate(109.493527, 280.360087)"><g><path d="M 3.734375 -7.703125 C 4.265625 -7.703125 4.734375 -7.59375 5.140625 -7.375 C 5.546875 -7.15625 5.851562 -6.867188 6.0625 -6.515625 L 6.0625 -7.59375 L 8.390625 -7.59375 L 8.390625 -0.015625 C 8.390625 0.679688 8.25 1.3125 7.96875 1.875 C 7.695312 2.445312 7.273438 2.898438 6.703125 3.234375 C 6.140625 3.578125 5.4375 3.75 4.59375 3.75 C 3.46875 3.75 2.554688 3.484375 1.859375 2.953125 C 1.160156 2.421875 0.765625 1.703125 0.671875 0.796875 L 2.96875 0.796875 C 3.039062 1.078125 3.210938 1.300781 3.484375 1.46875 C 3.753906 1.644531 4.085938 1.734375 4.484375 1.734375 C 4.972656 1.734375 5.359375 1.59375 5.640625 1.3125 C 5.921875 1.03125 6.0625 0.585938 6.0625 -0.015625 L 6.0625 -1.09375 C 5.84375 -0.738281 5.53125 -0.445312 5.125 -0.21875 C 4.726562 0 4.265625 0.109375 3.734375 0.109375 C 3.109375 0.109375 2.539062 -0.0507812 2.03125 -0.375 C 1.519531 -0.695312 1.113281 -1.15625 0.8125 -1.75 C 0.519531 -2.34375 0.375 -3.03125 0.375 -3.8125 C 0.375 -4.59375 0.519531 -5.273438 0.8125 -5.859375 C 1.113281 -6.453125 1.519531 -6.90625 2.03125 -7.21875 C 2.539062 -7.539062 3.109375 -7.703125 3.734375 -7.703125 Z M 6.0625 -3.796875 C 6.0625 -4.378906 5.898438 -4.835938 5.578125 -5.171875 C 5.265625 -5.503906 4.875 -5.671875 4.40625 -5.671875 C 3.945312 -5.671875 3.554688 -5.503906 3.234375 -5.171875 C 2.910156 -4.847656 2.75 -4.394531 2.75 -3.8125 C 2.75 -3.226562 2.910156 -2.765625 3.234375 -2.421875 C 3.554688 -2.085938 3.945312 -1.921875 4.40625 -1.921875 C 4.875 -1.921875 5.265625 -2.085938 5.578125 -2.421875 C 5.898438 -2.753906 6.0625 -3.210938 6.0625 -3.796875 Z M 6.0625 -3.796875 "/></g></g></g><g fill="#4e46dc" fill-opacity="1"><g transform="translate(118.731608, 280.360087)"><g><path d="M 0.375 -3.8125 C 0.375 -4.59375 0.519531 -5.273438 0.8125 -5.859375 C 1.113281 -6.453125 1.519531 -6.90625 2.03125 -7.21875 C 2.539062 -7.539062 3.109375 -7.703125 3.734375 -7.703125 C 4.265625 -7.703125 4.734375 -7.59375 5.140625 -7.375 C 5.546875 -7.15625 5.851562 -6.867188 6.0625 -6.515625 L 6.0625 -7.59375 L 8.390625 -7.59375 L 8.390625 0 L 6.0625 0 L 6.0625 -1.078125 C 5.84375 -0.722656 5.53125 -0.4375 5.125 -0.21875 C 4.71875 0 4.25 0.109375 3.71875 0.109375 C 3.101562 0.109375 2.539062 -0.0507812 2.03125 -0.375 C 1.519531 -0.695312 1.113281 -1.15625 0.8125 -1.75 C 0.519531 -2.34375 0.375 -3.03125 0.375 -3.8125 Z M 6.0625 -3.796875 C 6.0625 -4.378906 5.898438 -4.835938 5.578125 -5.171875 C 5.265625 -5.503906 4.875 -5.671875 4.40625 -5.671875 C 3.945312 -5.671875 3.554688 -5.503906 3.234375 -5.171875 C 2.910156 -4.847656 2.75 -4.394531 2.75 -3.8125 C 2.75 -3.226562 2.910156 -2.765625 3.234375 -2.421875 C 3.554688 -2.085938 3.945312 -1.921875 4.40625 -1.921875 C 4.875 -1.921875 5.265625 -2.085938 5.578125 -2.421875 C 5.898438 -2.753906 6.0625 -3.210938 6.0625 -3.796875 Z M 6.0625 -3.796875 "/></g></g></g><g fill="#4e46dc" fill-opacity="1"><g transform="translate(127.96969, 280.360087)"><g><path d="M 5.46875 -7.671875 C 6.363281 -7.671875 7.070312 -7.382812 7.59375 -6.8125 C 8.125 -6.238281 8.390625 -5.445312 8.390625 -4.4375 L 8.390625 0 L 6.078125 0 L 6.078125 -4.125 C 6.078125 -4.632812 5.945312 -5.03125 5.6875 -5.3125 C 5.425781 -5.59375 5.070312 -5.734375 4.625 -5.734375 C 4.175781 -5.734375 3.820312 -5.59375 3.5625 -5.3125 C 3.300781 -5.03125 3.171875 -4.632812 3.171875 -4.125 L 3.171875 0 L 0.84375 0 L 0.84375 -7.59375 L 3.171875 -7.59375 L 3.171875 -6.59375 C 3.410156 -6.925781 3.726562 -7.1875 4.125 -7.375 C 4.519531 -7.570312 4.96875 -7.671875 5.46875 -7.671875 Z M 5.46875 -7.671875 "/></g></g></g><g fill="#4e46dc" fill-opacity="1"><g transform="translate(137.139737, 280.360087)"><g><path d="M 2.015625 -8.390625 C 1.609375 -8.390625 1.273438 -8.507812 1.015625 -8.75 C 0.753906 -8.988281 0.625 -9.285156 0.625 -9.640625 C 0.625 -10.003906 0.753906 -10.304688 1.015625 -10.546875 C 1.273438 -10.785156 1.609375 -10.90625 2.015625 -10.90625 C 2.410156 -10.90625 2.738281 -10.785156 3 -10.546875 C 3.257812 -10.304688 3.390625 -10.003906 3.390625 -9.640625 C 3.390625 -9.285156 3.257812 -8.988281 3 -8.75 C 2.738281 -8.507812 2.410156 -8.390625 2.015625 -8.390625 Z M 3.171875 -7.59375 L 3.171875 0 L 0.84375 0 L 0.84375 -7.59375 Z M 3.171875 -7.59375 "/></g></g></g><g fill="#4e46dc" fill-opacity="1"><g transform="translate(141.153339, 280.360087)"><g><path d="M 3.015625 -1.921875 L 6.3125 -1.921875 L 6.3125 0 L 0.421875 0 L 0.421875 -1.84375 L 3.578125 -5.671875 L 0.453125 -5.671875 L 0.453125 -7.59375 L 6.25 -7.59375 L 6.25 -5.75 Z M 3.015625 -1.921875 "/></g></g></g><g fill="#4e46dc" fill-opacity="1"><g transform="translate(147.901622, 280.360087)"><g><path d="M 8 -3.921875 C 8 -3.703125 7.988281 -3.472656 7.96875 -3.234375 L 2.6875 -3.234375 C 2.726562 -2.765625 2.878906 -2.40625 3.140625 -2.15625 C 3.410156 -1.90625 3.742188 -1.78125 4.140625 -1.78125 C 4.722656 -1.78125 5.125 -2.023438 5.34375 -2.515625 L 7.828125 -2.515625 C 7.703125 -2.015625 7.472656 -1.566406 7.140625 -1.171875 C 6.804688 -0.773438 6.390625 -0.460938 5.890625 -0.234375 C 5.390625 -0.00390625 4.832031 0.109375 4.21875 0.109375 C 3.476562 0.109375 2.816406 -0.046875 2.234375 -0.359375 C 1.648438 -0.679688 1.191406 -1.132812 0.859375 -1.71875 C 0.535156 -2.3125 0.375 -3.003906 0.375 -3.796875 C 0.375 -4.585938 0.535156 -5.273438 0.859375 -5.859375 C 1.179688 -6.453125 1.632812 -6.90625 2.21875 -7.21875 C 2.800781 -7.539062 3.46875 -7.703125 4.21875 -7.703125 C 4.957031 -7.703125 5.609375 -7.546875 6.171875 -7.234375 C 6.742188 -6.929688 7.191406 -6.492188 7.515625 -5.921875 C 7.835938 -5.347656 8 -4.679688 8 -3.921875 Z M 5.625 -4.53125 C 5.625 -4.925781 5.484375 -5.242188 5.203125 -5.484375 C 4.929688 -5.722656 4.59375 -5.84375 4.1875 -5.84375 C 3.800781 -5.84375 3.472656 -5.726562 3.203125 -5.5 C 2.929688 -5.269531 2.765625 -4.945312 2.703125 -4.53125 Z M 5.625 -4.53125 "/></g></g></g><g fill="#4e46dc" fill-opacity="1"><g transform="translate(156.282553, 280.360087)"><g><path d="M 1.9375 0.109375 C 1.519531 0.109375 1.179688 -0.0078125 0.921875 -0.25 C 0.671875 -0.488281 0.546875 -0.785156 0.546875 -1.140625 C 0.546875 -1.503906 0.671875 -1.804688 0.921875 -2.046875 C 1.179688 -2.296875 1.519531 -2.421875 1.9375 -2.421875 C 2.332031 -2.421875 2.660156 -2.296875 2.921875 -2.046875 C 3.179688 -1.804688 3.3125 -1.503906 3.3125 -1.140625 C 3.3125 -0.785156 3.179688 -0.488281 2.921875 -0.25 C 2.660156 -0.0078125 2.332031 0.109375 1.9375 0.109375 Z M 1.9375 0.109375 "/></g></g></g><g fill="#4e46dc" fill-opacity="1"><g transform="translate(160.119275, 280.360087)"><g/></g></g><g fill="#4e46dc" fill-opacity="1"><g transform="translate(163.003621, 280.360087)"><g><path d="M 8.125 -6.484375 C 8.125 -5.921875 7.992188 -5.410156 7.734375 -4.953125 C 7.484375 -4.492188 7.09375 -4.125 6.5625 -3.84375 C 6.039062 -3.5625 5.390625 -3.421875 4.609375 -3.421875 L 3.171875 -3.421875 L 3.171875 0 L 0.84375 0 L 0.84375 -9.546875 L 4.609375 -9.546875 C 5.367188 -9.546875 6.007812 -9.414062 6.53125 -9.15625 C 7.0625 -8.894531 7.457031 -8.53125 7.71875 -8.0625 C 7.988281 -7.601562 8.125 -7.078125 8.125 -6.484375 Z M 4.4375 -5.28125 C 4.882812 -5.28125 5.210938 -5.382812 5.421875 -5.59375 C 5.640625 -5.800781 5.75 -6.097656 5.75 -6.484375 C 5.75 -6.859375 5.640625 -7.148438 5.421875 -7.359375 C 5.210938 -7.566406 4.882812 -7.671875 4.4375 -7.671875 L 3.171875 -7.671875 L 3.171875 -5.28125 Z M 4.4375 -5.28125 "/></g></g></g><g fill="#4e46dc" fill-opacity="1"><g transform="translate(171.493397, 280.360087)"><g><path d="M 3.171875 -6.328125 C 3.441406 -6.742188 3.78125 -7.070312 4.1875 -7.3125 C 4.59375 -7.550781 5.046875 -7.671875 5.546875 -7.671875 L 5.546875 -5.21875 L 4.90625 -5.21875 C 4.332031 -5.21875 3.898438 -5.09375 3.609375 -4.84375 C 3.316406 -4.59375 3.171875 -4.15625 3.171875 -3.53125 L 3.171875 0 L 0.84375 0 L 0.84375 -7.59375 L 3.171875 -7.59375 Z M 3.171875 -6.328125 "/></g></g></g><g fill="#4e46dc" fill-opacity="1"><g transform="translate(177.316516, 280.360087)"><g><path d="M 2.015625 -8.390625 C 1.609375 -8.390625 1.273438 -8.507812 1.015625 -8.75 C 0.753906 -8.988281 0.625 -9.285156 0.625 -9.640625 C 0.625 -10.003906 0.753906 -10.304688 1.015625 -10.546875 C 1.273438 -10.785156 1.609375 -10.90625 2.015625 -10.90625 C 2.410156 -10.90625 2.738281 -10.785156 3 -10.546875 C 3.257812 -10.304688 3.390625 -10.003906 3.390625 -9.640625 C 3.390625 -9.285156 3.257812 -8.988281 3 -8.75 C 2.738281 -8.507812 2.410156 -8.390625 2.015625 -8.390625 Z M 3.171875 -7.59375 L 3.171875 0 L 0.84375 0 L 0.84375 -7.59375 Z M 3.171875 -7.59375 "/></g></g></g><g fill="#4e46dc" fill-opacity="1"><g transform="translate(181.330119, 280.360087)"><g><path d="M 4.296875 0.109375 C 3.554688 0.109375 2.890625 -0.046875 2.296875 -0.359375 C 1.703125 -0.679688 1.234375 -1.132812 0.890625 -1.71875 C 0.546875 -2.3125 0.375 -3.003906 0.375 -3.796875 C 0.375 -4.578125 0.546875 -5.265625 0.890625 -5.859375 C 1.242188 -6.453125 1.71875 -6.90625 2.3125 -7.21875 C 2.914062 -7.539062 3.585938 -7.703125 4.328125 -7.703125 C 5.066406 -7.703125 5.734375 -7.539062 6.328125 -7.21875 C 6.929688 -6.90625 7.40625 -6.453125 7.75 -5.859375 C 8.101562 -5.265625 8.28125 -4.578125 8.28125 -3.796875 C 8.28125 -3.015625 8.101562 -2.328125 7.75 -1.734375 C 7.40625 -1.140625 6.929688 -0.679688 6.328125 -0.359375 C 5.722656 -0.046875 5.046875 0.109375 4.296875 0.109375 Z M 4.296875 -1.90625 C 4.742188 -1.90625 5.125 -2.066406 5.4375 -2.390625 C 5.75 -2.722656 5.90625 -3.191406 5.90625 -3.796875 C 5.90625 -4.398438 5.753906 -4.863281 5.453125 -5.1875 C 5.148438 -5.519531 4.773438 -5.6875 4.328125 -5.6875 C 3.867188 -5.6875 3.488281 -5.523438 3.1875 -5.203125 C 2.894531 -4.878906 2.75 -4.410156 2.75 -3.796875 C 2.75 -3.191406 2.894531 -2.722656 3.1875 -2.390625 C 3.488281 -2.066406 3.859375 -1.90625 4.296875 -1.90625 Z M 4.296875 -1.90625 "/></g></g></g><g fill="#4e46dc" fill-opacity="1"><g transform="translate(189.996762, 280.360087)"><g><path d="M 3.171875 -6.328125 C 3.441406 -6.742188 3.78125 -7.070312 4.1875 -7.3125 C 4.59375 -7.550781 5.046875 -7.671875 5.546875 -7.671875 L 5.546875 -5.21875 L 4.90625 -5.21875 C 4.332031 -5.21875 3.898438 -5.09375 3.609375 -4.84375 C 3.316406 -4.59375 3.171875 -4.15625 3.171875 -3.53125 L 3.171875 0 L 0.84375 0 L 0.84375 -7.59375 L 3.171875 -7.59375 Z M 3.171875 -6.328125 "/></g></g></g><g fill="#4e46dc" fill-opacity="1"><g transform="translate(195.819882, 280.360087)"><g><path d="M 2.015625 -8.390625 C 1.609375 -8.390625 1.273438 -8.507812 1.015625 -8.75 C 0.753906 -8.988281 0.625 -9.285156 0.625 -9.640625 C 0.625 -10.003906 0.753906 -10.304688 1.015625 -10.546875 C 1.273438 -10.785156 1.609375 -10.90625 2.015625 -10.90625 C 2.410156 -10.90625 2.738281 -10.785156 3 -10.546875 C 3.257812 -10.304688 3.390625 -10.003906 3.390625 -9.640625 C 3.390625 -9.285156 3.257812 -8.988281 3 -8.75 C 2.738281 -8.507812 2.410156 -8.390625 2.015625 -8.390625 Z M 3.171875 -7.59375 L 3.171875 0 L 0.84375 0 L 0.84375 -7.59375 Z M 3.171875 -7.59375 "/></g></g></g><g fill="#4e46dc" fill-opacity="1"><g transform="translate(199.833485, 280.360087)"><g><path d="M 5.078125 -1.96875 L 5.078125 0 L 3.890625 0 C 3.046875 0 2.390625 -0.203125 1.921875 -0.609375 C 1.453125 -1.023438 1.21875 -1.703125 1.21875 -2.640625 L 1.21875 -5.65625 L 0.28125 -5.65625 L 0.28125 -7.59375 L 1.21875 -7.59375 L 1.21875 -9.4375 L 3.53125 -9.4375 L 3.53125 -7.59375 L 5.0625 -7.59375 L 5.0625 -5.65625 L 3.53125 -5.65625 L 3.53125 -2.609375 C 3.53125 -2.378906 3.582031 -2.210938 3.6875 -2.109375 C 3.800781 -2.015625 3.988281 -1.96875 4.25 -1.96875 Z M 5.078125 -1.96875 "/></g></g></g><g fill="#4e46dc" fill-opacity="1"><g transform="translate(205.357284, 280.360087)"><g><path d="M 2.015625 -8.390625 C 1.609375 -8.390625 1.273438 -8.507812 1.015625 -8.75 C 0.753906 -8.988281 0.625 -9.285156 0.625 -9.640625 C 0.625 -10.003906 0.753906 -10.304688 1.015625 -10.546875 C 1.273438 -10.785156 1.609375 -10.90625 2.015625 -10.90625 C 2.410156 -10.90625 2.738281 -10.785156 3 -10.546875 C 3.257812 -10.304688 3.390625 -10.003906 3.390625 -9.640625 C 3.390625 -9.285156 3.257812 -8.988281 3 -8.75 C 2.738281 -8.507812 2.410156 -8.390625 2.015625 -8.390625 Z M 3.171875 -7.59375 L 3.171875 0 L 0.84375 0 L 0.84375 -7.59375 Z M 3.171875 -7.59375 "/></g></g></g><g fill="#4e46dc" fill-opacity="1"><g transform="translate(209.370886, 280.360087)"><g><path d="M 3.015625 -1.921875 L 6.3125 -1.921875 L 6.3125 0 L 0.421875 0 L 0.421875 -1.84375 L 3.578125 -5.671875 L 0.453125 -5.671875 L 0.453125 -7.59375 L 6.25 -7.59375 L 6.25 -5.75 Z M 3.015625 -1.921875 "/></g></g></g><g fill="#4e46dc" fill-opacity="1"><g transform="translate(216.119169, 280.360087)"><g><path d="M 8 -3.921875 C 8 -3.703125 7.988281 -3.472656 7.96875 -3.234375 L 2.6875 -3.234375 C 2.726562 -2.765625 2.878906 -2.40625 3.140625 -2.15625 C 3.410156 -1.90625 3.742188 -1.78125 4.140625 -1.78125 C 4.722656 -1.78125 5.125 -2.023438 5.34375 -2.515625 L 7.828125 -2.515625 C 7.703125 -2.015625 7.472656 -1.566406 7.140625 -1.171875 C 6.804688 -0.773438 6.390625 -0.460938 5.890625 -0.234375 C 5.390625 -0.00390625 4.832031 0.109375 4.21875 0.109375 C 3.476562 0.109375 2.816406 -0.046875 2.234375 -0.359375 C 1.648438 -0.679688 1.191406 -1.132812 0.859375 -1.71875 C 0.535156 -2.3125 0.375 -3.003906 0.375 -3.796875 C 0.375 -4.585938 0.535156 -5.273438 0.859375 -5.859375 C 1.179688 -6.453125 1.632812 -6.90625 2.21875 -7.21875 C 2.800781 -7.539062 3.46875 -7.703125 4.21875 -7.703125 C 4.957031 -7.703125 5.609375 -7.546875 6.171875 -7.234375 C 6.742188 -6.929688 7.191406 -6.492188 7.515625 -5.921875 C 7.835938 -5.347656 8 -4.679688 8 -3.921875 Z M 5.625 -4.53125 C 5.625 -4.925781 5.484375 -5.242188 5.203125 -5.484375 C 4.929688 -5.722656 4.59375 -5.84375 4.1875 -5.84375 C 3.800781 -5.84375 3.472656 -5.726562 3.203125 -5.5 C 2.929688 -5.269531 2.765625 -4.945312 2.703125 -4.53125 Z M 5.625 -4.53125 "/></g></g></g><g fill="#4e46dc" fill-opacity="1"><g transform="translate(224.5001, 280.360087)"><g><path d="M 1.9375 0.109375 C 1.519531 0.109375 1.179688 -0.0078125 0.921875 -0.25 C 0.671875 -0.488281 0.546875 -0.785156 0.546875 -1.140625 C 0.546875 -1.503906 0.671875 -1.804688 0.921875 -2.046875 C 1.179688 -2.296875 1.519531 -2.421875 1.9375 -2.421875 C 2.332031 -2.421875 2.660156 -2.296875 2.921875 -2.046875 C 3.179688 -1.804688 3.3125 -1.503906 3.3125 -1.140625 C 3.3125 -0.785156 3.179688 -0.488281 2.921875 -0.25 C 2.660156 -0.0078125 2.332031 0.109375 1.9375 0.109375 Z M 1.9375 0.109375 "/></g></g></g><g fill="#4e46dc" fill-opacity="1"><g transform="translate(228.336822, 280.360087)"><g/></g></g><g fill="#4e46dc" fill-opacity="1"><g transform="translate(231.221168, 280.360087)"><g><path d="M 7.71875 -9.546875 L 7.71875 -7.6875 L 5.1875 -7.6875 L 5.1875 0 L 2.859375 0 L 2.859375 -7.6875 L 0.328125 -7.6875 L 0.328125 -9.546875 Z M 7.71875 -9.546875 "/></g></g></g><g fill="#4e46dc" fill-opacity="1"><g transform="translate(239.261969, 280.360087)"><g><path d="M 0.375 -3.8125 C 0.375 -4.59375 0.519531 -5.273438 0.8125 -5.859375 C 1.113281 -6.453125 1.519531 -6.90625 2.03125 -7.21875 C 2.539062 -7.539062 3.109375 -7.703125 3.734375 -7.703125 C 4.265625 -7.703125 4.734375 -7.59375 5.140625 -7.375 C 5.546875 -7.15625 5.851562 -6.867188 6.0625 -6.515625 L 6.0625 -7.59375 L 8.390625 -7.59375 L 8.390625 0 L 6.0625 0 L 6.0625 -1.078125 C 5.84375 -0.722656 5.53125 -0.4375 5.125 -0.21875 C 4.71875 0 4.25 0.109375 3.71875 0.109375 C 3.101562 0.109375 2.539062 -0.0507812 2.03125 -0.375 C 1.519531 -0.695312 1.113281 -1.15625 0.8125 -1.75 C 0.519531 -2.34375 0.375 -3.03125 0.375 -3.8125 Z M 6.0625 -3.796875 C 6.0625 -4.378906 5.898438 -4.835938 5.578125 -5.171875 C 5.265625 -5.503906 4.875 -5.671875 4.40625 -5.671875 C 3.945312 -5.671875 3.554688 -5.503906 3.234375 -5.171875 C 2.910156 -4.847656 2.75 -4.394531 2.75 -3.8125 C 2.75 -3.226562 2.910156 -2.765625 3.234375 -2.421875 C 3.554688 -2.085938 3.945312 -1.921875 4.40625 -1.921875 C 4.875 -1.921875 5.265625 -2.085938 5.578125 -2.421875 C 5.898438 -2.753906 6.0625 -3.210938 6.0625 -3.796875 Z M 6.0625 -3.796875 "/></g></g></g><g fill="#4e46dc" fill-opacity="1"><g transform="translate(248.500051, 280.360087)"><g><path d="M 3.9375 0.109375 C 3.269531 0.109375 2.675781 -0.00390625 2.15625 -0.234375 C 1.644531 -0.460938 1.238281 -0.769531 0.9375 -1.15625 C 0.632812 -1.550781 0.46875 -1.992188 0.4375 -2.484375 L 2.734375 -2.484375 C 2.765625 -2.222656 2.882812 -2.007812 3.09375 -1.84375 C 3.3125 -1.6875 3.582031 -1.609375 3.90625 -1.609375 C 4.195312 -1.609375 4.421875 -1.664062 4.578125 -1.78125 C 4.734375 -1.894531 4.8125 -2.039062 4.8125 -2.21875 C 4.8125 -2.4375 4.695312 -2.597656 4.46875 -2.703125 C 4.25 -2.804688 3.882812 -2.921875 3.375 -3.046875 C 2.832031 -3.171875 2.378906 -3.300781 2.015625 -3.4375 C 1.648438 -3.582031 1.335938 -3.804688 1.078125 -4.109375 C 0.816406 -4.421875 0.6875 -4.832031 0.6875 -5.34375 C 0.6875 -5.78125 0.804688 -6.175781 1.046875 -6.53125 C 1.285156 -6.894531 1.632812 -7.179688 2.09375 -7.390625 C 2.5625 -7.597656 3.117188 -7.703125 3.765625 -7.703125 C 4.722656 -7.703125 5.472656 -7.460938 6.015625 -6.984375 C 6.566406 -6.515625 6.882812 -5.890625 6.96875 -5.109375 L 4.8125 -5.109375 C 4.78125 -5.378906 4.664062 -5.585938 4.46875 -5.734375 C 4.269531 -5.890625 4.015625 -5.96875 3.703125 -5.96875 C 3.429688 -5.96875 3.222656 -5.914062 3.078125 -5.8125 C 2.929688 -5.707031 2.859375 -5.566406 2.859375 -5.390625 C 2.859375 -5.171875 2.972656 -5.003906 3.203125 -4.890625 C 3.429688 -4.785156 3.789062 -4.679688 4.28125 -4.578125 C 4.84375 -4.429688 5.300781 -4.285156 5.65625 -4.140625 C 6.007812 -4.003906 6.320312 -3.78125 6.59375 -3.46875 C 6.863281 -3.15625 7.003906 -2.734375 7.015625 -2.203125 C 7.015625 -1.753906 6.890625 -1.351562 6.640625 -1 C 6.390625 -0.65625 6.03125 -0.382812 5.5625 -0.1875 C 5.09375 0.0078125 4.550781 0.109375 3.9375 0.109375 Z M 3.9375 0.109375 "/></g></g></g><g fill="#4e46dc" fill-opacity="1"><g transform="translate(256.091877, 280.360087)"><g><path d="M 5.484375 0 L 3.171875 -3.1875 L 3.171875 0 L 0.84375 0 L 0.84375 -10.078125 L 3.171875 -10.078125 L 3.171875 -4.5 L 5.46875 -7.59375 L 8.34375 -7.59375 L 5.1875 -3.78125 L 8.375 0 Z M 5.484375 0 "/></g></g></g><g fill="#4e46dc" fill-opacity="1"><g transform="translate(264.500022, 280.360087)"><g><path d="M 2.015625 -8.390625 C 1.609375 -8.390625 1.273438 -8.507812 1.015625 -8.75 C 0.753906 -8.988281 0.625 -9.285156 0.625 -9.640625 C 0.625 -10.003906 0.753906 -10.304688 1.015625 -10.546875 C 1.273438 -10.785156 1.609375 -10.90625 2.015625 -10.90625 C 2.410156 -10.90625 2.738281 -10.785156 3 -10.546875 C 3.257812 -10.304688 3.390625 -10.003906 3.390625 -9.640625 C 3.390625 -9.285156 3.257812 -8.988281 3 -8.75 C 2.738281 -8.507812 2.410156 -8.390625 2.015625 -8.390625 Z M 3.171875 -7.59375 L 3.171875 0 L 0.84375 0 L 0.84375 -7.59375 Z M 3.171875 -7.59375 "/></g></g></g><g fill="#4e46dc" fill-opacity="1"><g transform="translate(268.513625, 280.360087)"><g><path d="M 4.65625 -5.65625 L 3.40625 -5.65625 L 3.40625 0 L 1.078125 0 L 1.078125 -5.65625 L 0.234375 -5.65625 L 0.234375 -7.59375 L 1.078125 -7.59375 L 1.078125 -7.8125 C 1.078125 -8.75 1.34375 -9.457031 1.875 -9.9375 C 2.414062 -10.425781 3.203125 -10.671875 4.234375 -10.671875 C 4.398438 -10.671875 4.523438 -10.664062 4.609375 -10.65625 L 4.609375 -8.6875 C 4.171875 -8.707031 3.859375 -8.640625 3.671875 -8.484375 C 3.492188 -8.335938 3.40625 -8.0625 3.40625 -7.65625 L 3.40625 -7.59375 L 4.65625 -7.59375 Z M 4.65625 -5.65625 "/></g></g></g><g fill="#4e46dc" fill-opacity="1"><g transform="translate(273.411569, 280.360087)"><g><path d="M 8.59375 -7.59375 L 3.84375 3.609375 L 1.328125 3.609375 L 3.078125 -0.265625 L -0.015625 -7.59375 L 2.578125 -7.59375 L 4.34375 -2.84375 L 6.078125 -7.59375 Z M 8.59375 -7.59375 "/></g></g></g></svg>